<svg display="none" xmlns="http://www.w3.org/2000/svg">
			<symbol id="github" viewBox="0 0 128 128">
				<path
					d="M64 1.512c-23.493 0-42.545 19.047-42.545 42.545 0 18.797 12.19 34.745 29.095 40.37 2.126.394 2.907-.923 2.907-2.047 0-1.014-.04-4.366-.058-7.92-11.837 2.573-14.334-5.02-14.334-5.02-1.935-4.918-4.724-6.226-4.724-6.226-3.86-2.64.29-2.586.29-2.586 4.273.3 6.523 4.385 6.523 4.385 3.794 6.504 9.953 4.623 12.38 3.536.383-2.75 1.485-4.628 2.702-5.69-9.45-1.075-19.384-4.724-19.384-21.026 0-4.645 1.662-8.44 4.384-11.42-.442-1.072-1.898-5.4.412-11.26 0 0 3.572-1.142 11.7 4.363 3.395-.943 7.035-1.416 10.65-1.432 3.616.017 7.258.49 10.658 1.432 8.12-5.504 11.688-4.362 11.688-4.362 2.316 5.86.86 10.187.418 11.26 2.728 2.978 4.378 6.774 4.378 11.42 0 16.34-9.953 19.938-19.427 20.99 1.526 1.32 2.886 3.91 2.886 7.88 0 5.692-.048 10.273-.048 11.674 0 1.13.766 2.458 2.922 2.04 16.896-5.632 29.07-21.574 29.07-40.365C106.545 20.56 87.497 1.512 64 1.512z"
				/>
			</symbol>
			<symbol id="tw" viewBox="0 0 512 512">
				<path
					d="M503.6277,98.9293c-15.8539,7.1724-33.3008,11.5266-50.4099,14.3986
				c8.1227-1.3628,20.0931-16.0676,24.8777-22.0133c7.3009-9.0701,13.3735-19.4058,16.7879-30.5663
				c0.4348-0.8711,0.7665-1.9664-0.1046-2.6269c-1.0953-0.4348-1.8006-0.2122-2.6717,0.2241
				c-19.0965,10.2326-38.8504,17.6575-59.8715,22.9113c-1.7423,0.4363-3.0348,0-4.1301-1.0938
				c-1.7408-1.9679-3.3785-3.8208-5.2328-5.3524c-8.8355-7.5176-18.3165-13.4154-29.0048-17.7711
				c-14.0355-5.7215-29.3694-8.1451-44.4853-7.1649c-14.7064,0.9548-29.1497,5.1014-42.2035,11.9211
				c-13.0806,6.8347-24.7522,16.3411-34.0464,27.8109c-9.614,11.8628-16.7042,25.8744-20.3337,40.7227
				c-3.504,14.3313-3.2171,28.5087-1.0788,42.997c0.3242,2.4013,0.1136,2.7255-2.0636,2.4013
				C167.4175,163.4898,99.2485,134.0606,43.912,71.0033c-2.4027-2.7375-3.7072-2.7375-5.6752,0.2107
				c-24.2158,36.2953-12.4665,94.6127,17.7845,123.2694c4.0315,3.8208,8.1765,7.6416,12.6443,11.1262
				c-1.6302,0.3347-21.7622-1.8454-39.7007-11.1262c-2.4027-1.5182-3.6086-0.647-3.8208,2.0785
				c-0.2226,3.9209,0.1121,7.5295,0.65,11.7851c4.6471,36.7928,30.1285,70.8273,65.0222,84.1052
				c4.145,1.7423,8.7249,3.2724,13.1942,4.0315c-7.9524,1.7423-16.1409,2.99-38.9416,1.2058
				c-2.8376-0.5454-3.9209,0.8727-2.8376,3.5981c17.1345,46.6997,54.1186,60.5932,81.816,68.5098
				c3.7072,0.6485,7.4174,0.6485,11.1351,1.5197c-0.2227,0.3347-0.4453,0.3347-0.6575,0.6589
				c-9.1881,14.0056-41.041,24.4295-55.8729,29.613c-26.9756,9.4272-56.3481,13.6694-84.8568,10.8587
				c-4.5634-0.6694-5.5212-0.6201-6.7585,0c-1.2522,0.774-0.1584,1.8633,1.306,3.0497c5.7872,3.8193,11.6746,7.2053,17.674,10.4792
				c18.1073,9.5946,36.9841,17.2346,56.7231,22.6872c101.939,28.1516,216.7675,7.4653,293.3088-68.583
				c60.1076-59.7206,81.1735-142.0775,81.1735-224.539c0-3.2276,3.8133-5.0102,6.0801-6.7122
				c15.6388-11.7508,28.068-25.8116,39.7336-41.5132c2.6209-3.5279,2.4595-6.6643,2.4595-7.9524c0-0.2226,0-0.4348,0-0.4348
				C505.4955,97.6114,505.6569,98.0074,503.6277,98.9293z"
				/>
			</symbol>
		</svg>